<?xml version="1.0" encoding="utf-8"?>
<!-- Generator: Adobe Illustrator 24.2.0, SVG Export Plug-In . SVG Version: 6.00 Build 0)  -->
<svg version="1.1" xmlns="http://www.w3.org/2000/svg" xmlns:xlink="http://www.w3.org/1999/xlink" x="0px" y="0px"
	 viewBox="0 0 500 500" style="enable-background:new 0 0 500 500;" xml:space="preserve">
<style type="text/css">
	.st0{fill:#FFFFFF;}
	.st1{fill:#2F587A;}
	.st2{fill:#5FB3F9;}
	.st3{fill:#FAD846;}
</style>
<g id="Layer_2">
	<rect class="st0" width="500" height="500"/>
</g>
<g id="Layer_1">
	<g>
		<g>
			<path class="st1" d="M185.9,244.3c-0.3,0-0.5-0.1-0.7-0.2c-0.2-0.1-0.3-0.3-0.3-0.5s0-0.5,0.2-0.8l2.1-4.1v0.8l-6.7-10.8
				c-0.2-0.3-0.2-0.5-0.2-0.7c0-0.2,0.1-0.4,0.3-0.6c0.2-0.1,0.4-0.2,0.7-0.2c0.3,0,0.5,0.1,0.7,0.2c0.2,0.1,0.3,0.3,0.5,0.6
				l5.9,9.5h-0.5l4.9-9.5c0.1-0.2,0.2-0.4,0.4-0.6c0.2-0.2,0.4-0.2,0.7-0.2c0.3,0,0.5,0.1,0.7,0.2c0.2,0.1,0.3,0.3,0.3,0.5
				c0,0.2,0,0.5-0.2,0.8l-7.6,14.8c-0.1,0.2-0.3,0.4-0.4,0.5C186.4,244.2,186.2,244.3,185.9,244.3z"/>
			<path class="st1" d="M198.5,244.3c-0.3,0-0.6-0.1-0.8-0.3c-0.2-0.2-0.3-0.5-0.3-0.8v-14.8c0-0.4,0.1-0.6,0.3-0.8
				c0.2-0.2,0.5-0.3,0.8-0.3c0.4,0,0.6,0.1,0.8,0.3c0.2,0.2,0.3,0.5,0.3,0.8v6.4h3.1l-0.6,0.4l4.8-7.4c0.2-0.2,0.3-0.4,0.6-0.5
				c0.2-0.1,0.4-0.1,0.6,0c0.2,0,0.4,0.1,0.5,0.3c0.2,0.2,0.2,0.3,0.2,0.5c0,0.2-0.1,0.4-0.2,0.7l-4.5,6.7l-0.8-0.7
				c1,0.1,1.8,0.5,2.5,1.1c0.7,0.6,1.3,1.4,1.8,2.4l2.2,4.5c0.1,0.3,0.2,0.5,0.1,0.8c-0.1,0.2-0.2,0.4-0.3,0.5
				c-0.2,0.1-0.4,0.2-0.6,0.2c-0.2,0-0.4,0-0.7-0.1s-0.4-0.3-0.5-0.6l-2-4.4c-0.4-0.9-1-1.6-1.5-2c-0.6-0.4-1.3-0.6-2.2-0.6h-2.6
				v6.5c0,0.4-0.1,0.6-0.3,0.8C199.2,244.2,198.9,244.3,198.5,244.3z"/>
			<path class="st1" d="M214.3,244.3c-0.3,0-0.6-0.1-0.8-0.3c-0.2-0.2-0.3-0.5-0.3-0.8v-14.7c0-0.4,0.1-0.6,0.3-0.8
				c0.2-0.2,0.5-0.3,0.8-0.3h5.7c1.8,0,3.2,0.4,4.2,1.3c1,0.9,1.5,2.1,1.5,3.7c0,1.6-0.5,2.9-1.5,3.8c-1,0.9-2.4,1.3-4.2,1.3h-4.6
				v5.6c0,0.4-0.1,0.6-0.3,0.8C214.9,244.2,214.6,244.3,214.3,244.3z M215.4,235.8h4.3c1.2,0,2.2-0.3,2.8-0.8
				c0.6-0.6,0.9-1.4,0.9-2.5c0-1.1-0.3-1.9-0.9-2.4c-0.6-0.5-1.6-0.8-2.8-0.8h-4.3V235.8z"/>
			<path class="st1" d="M226.6,244.3c-0.3,0-0.5-0.1-0.7-0.2c-0.2-0.1-0.3-0.3-0.3-0.5c0-0.2,0-0.5,0.1-0.7l6.5-14.7
				c0.1-0.3,0.3-0.6,0.5-0.7c0.2-0.2,0.5-0.2,0.7-0.2c0.3,0,0.5,0.1,0.7,0.2c0.2,0.2,0.4,0.4,0.6,0.7l6.5,14.7
				c0.1,0.3,0.2,0.5,0.2,0.7c0,0.2-0.1,0.4-0.3,0.5c-0.2,0.1-0.4,0.2-0.7,0.2c-0.3,0-0.6-0.1-0.8-0.2c-0.2-0.2-0.4-0.4-0.5-0.7
				l-1.7-3.9l1,0.6h-10.2l1-0.6l-1.7,3.9c-0.1,0.3-0.3,0.6-0.5,0.7C227.1,244.2,226.9,244.3,226.6,244.3z M233.5,229.9l-3.7,8.8
				l-0.6-0.5h8.6l-0.5,0.5L233.5,229.9L233.5,229.9z"/>
			<path class="st1" d="M243.5,225.1c-0.4,0-0.7-0.1-0.9-0.3c-0.2-0.2-0.3-0.5-0.3-0.9c0-0.4,0.1-0.6,0.3-0.9
				c0.2-0.2,0.5-0.3,0.9-0.3s0.7,0.1,0.9,0.3c0.2,0.2,0.3,0.5,0.3,0.9c0,0.4-0.1,0.7-0.3,0.9C244.2,225,243.9,225.1,243.5,225.1z
				 M245.6,244.3c-0.3,0-0.6-0.1-0.8-0.3c-0.2-0.2-0.3-0.5-0.3-0.8v-14.8c0-0.4,0.1-0.7,0.3-0.9c0.2-0.2,0.5-0.3,0.8-0.3
				c0.4,0,0.6,0.1,0.8,0.3c0.2,0.2,0.3,0.5,0.3,0.9v14.8c0,0.4-0.1,0.6-0.3,0.8C246.3,244.2,246,244.3,245.6,244.3z M247.7,225.1
				c-0.4,0-0.7-0.1-0.9-0.3c-0.2-0.2-0.3-0.5-0.3-0.9c0-0.4,0.1-0.6,0.3-0.9c0.2-0.2,0.5-0.3,0.9-0.3s0.7,0.1,0.9,0.3
				c0.2,0.2,0.3,0.5,0.3,0.9c0,0.4-0.1,0.7-0.3,0.9C248.4,225,248.1,225.1,247.7,225.1z"/>
			<path class="st1" d="M252.1,244.3c-0.3,0-0.6-0.1-0.8-0.3c-0.2-0.2-0.3-0.5-0.3-0.8v-14.8c0-0.4,0.1-0.7,0.3-0.9
				c0.2-0.2,0.5-0.3,0.8-0.3c0.4,0,0.6,0.1,0.8,0.3c0.2,0.2,0.3,0.5,0.3,0.9v6.4h9.7v-6.4c0-0.4,0.1-0.7,0.3-0.9
				c0.2-0.2,0.5-0.3,0.8-0.3c0.3,0,0.6,0.1,0.8,0.3c0.2,0.2,0.3,0.5,0.3,0.9v14.8c0,0.4-0.1,0.6-0.3,0.8c-0.2,0.2-0.5,0.3-0.8,0.3
				c-0.4,0-0.6-0.1-0.8-0.3c-0.2-0.2-0.3-0.5-0.3-0.8v-6.6h-9.7v6.6c0,0.4-0.1,0.6-0.3,0.8C252.8,244.2,252.5,244.3,252.1,244.3z"/>
			<path class="st1" d="M276.9,244.4c-1.7,0-3.1-0.3-4.3-1c-1.2-0.7-2.1-1.7-2.7-3c-0.6-1.3-1-2.8-1-4.6c0-1.3,0.2-2.5,0.5-3.6
				c0.4-1.1,0.9-2,1.6-2.7c0.7-0.8,1.5-1.3,2.5-1.7c1-0.4,2.1-0.6,3.4-0.6c1,0,1.9,0.1,2.7,0.4s1.6,0.7,2.3,1.1
				c0.3,0.2,0.4,0.4,0.5,0.6c0.1,0.2,0.1,0.4,0,0.6c-0.1,0.2-0.2,0.4-0.3,0.5c-0.2,0.1-0.3,0.2-0.6,0.2c-0.2,0-0.5-0.1-0.7-0.2
				c-0.6-0.4-1.2-0.7-1.8-0.9c-0.7-0.2-1.4-0.3-2.1-0.3c-1.2,0-2.3,0.3-3.1,0.8c-0.8,0.5-1.5,1.3-1.9,2.2c-0.4,1-0.7,2.2-0.7,3.6
				c0,1.4,0.2,2.6,0.7,3.6c0.4,1,1.1,1.7,1.9,2.3c0.8,0.5,1.9,0.8,3.1,0.8c0.7,0,1.5-0.1,2.1-0.3c0.7-0.2,1.3-0.5,1.9-1
				c0.3-0.2,0.5-0.3,0.7-0.2c0.2,0,0.4,0.1,0.5,0.2c0.1,0.1,0.2,0.3,0.3,0.5c0.1,0.2,0.1,0.4,0,0.6c-0.1,0.2-0.2,0.4-0.4,0.5
				c-0.7,0.6-1.4,1-2.3,1.2C278.8,244.2,277.9,244.4,276.9,244.4z"/>
			<path class="st1" d="M287,244.1c-0.4,0-0.7-0.1-0.9-0.3c-0.2-0.2-0.3-0.5-0.3-0.9v-14.6c0-0.4,0.1-0.7,0.3-0.9
				c0.2-0.2,0.5-0.3,0.8-0.3c0.4,0,0.6,0.1,0.8,0.3c0.2,0.2,0.3,0.5,0.3,0.9v6.3h4.9c1.2,0,2.2,0.2,3,0.5c0.8,0.4,1.5,0.9,1.9,1.6
				s0.7,1.6,0.7,2.6c0,1.6-0.5,2.7-1.5,3.5c-1,0.8-2.4,1.2-4.1,1.2H287z M288.1,242.3h4.7c1.2,0,2.2-0.2,2.8-0.7
				c0.6-0.5,0.9-1.2,0.9-2.2c0-1-0.3-1.7-0.9-2.2c-0.6-0.5-1.5-0.7-2.8-0.7h-4.7V242.3z"/>
			<path class="st1" d="M303,244.3c-0.3,0-0.6-0.1-0.8-0.3c-0.2-0.2-0.3-0.5-0.3-0.8v-14.8c0-0.4,0.1-0.6,0.3-0.8
				c0.2-0.2,0.5-0.3,0.8-0.3c0.4,0,0.6,0.1,0.8,0.3c0.2,0.2,0.3,0.5,0.3,0.8v6.4h3.1l-0.6,0.4l4.8-7.4c0.2-0.2,0.3-0.4,0.6-0.5
				c0.2-0.1,0.4-0.1,0.6,0c0.2,0,0.4,0.1,0.5,0.3c0.2,0.2,0.2,0.3,0.2,0.5c0,0.2-0.1,0.4-0.2,0.7l-4.5,6.7l-0.8-0.7
				c1,0.1,1.8,0.5,2.5,1.1c0.7,0.6,1.3,1.4,1.8,2.4l2.2,4.5c0.1,0.3,0.2,0.5,0.1,0.8c-0.1,0.2-0.2,0.4-0.3,0.5
				c-0.2,0.1-0.4,0.2-0.6,0.2c-0.2,0-0.4,0-0.7-0.1s-0.4-0.3-0.5-0.6l-2-4.4c-0.4-0.9-1-1.6-1.5-2c-0.6-0.4-1.3-0.6-2.2-0.6h-2.6
				v6.5c0,0.4-0.1,0.6-0.3,0.8C303.7,244.2,303.4,244.3,303,244.3z"/>
			<path class="st1" d="M317,244.3c-0.3,0-0.5-0.1-0.7-0.2c-0.2-0.1-0.3-0.3-0.3-0.5c0-0.2,0-0.5,0.1-0.7l6.5-14.7
				c0.1-0.3,0.3-0.6,0.5-0.7c0.2-0.2,0.5-0.2,0.7-0.2c0.3,0,0.5,0.1,0.7,0.2c0.2,0.2,0.4,0.4,0.6,0.7l6.5,14.7
				c0.1,0.3,0.2,0.5,0.2,0.7c0,0.2-0.1,0.4-0.3,0.5s-0.4,0.2-0.7,0.2c-0.3,0-0.6-0.1-0.8-0.2c-0.2-0.2-0.4-0.4-0.5-0.7l-1.7-3.9
				l1,0.6h-10.2l1-0.6l-1.7,3.9c-0.1,0.3-0.3,0.6-0.5,0.7C317.5,244.2,317.3,244.3,317,244.3z M323.9,229.9l-3.7,8.8l-0.6-0.5h8.6
				l-0.5,0.5L323.9,229.9L323.9,229.9z"/>
			<path class="st1" d="M182.9,273.4c-0.3,0-0.6-0.1-0.8-0.3c-0.2-0.2-0.3-0.5-0.3-0.8v-14.6c0-0.4,0.1-0.7,0.3-0.9
				c0.2-0.2,0.5-0.3,0.9-0.3h11.6c0.4,0,0.7,0.1,0.9,0.3c0.2,0.2,0.3,0.5,0.3,0.9v14.6c0,0.4-0.1,0.6-0.3,0.8
				c-0.2,0.2-0.5,0.3-0.8,0.3c-0.3,0-0.6-0.1-0.8-0.3c-0.2-0.2-0.3-0.5-0.3-0.8v-13.9H184v13.9c0,0.4-0.1,0.6-0.3,0.8
				C183.5,273.3,183.2,273.4,182.9,273.4z"/>
			<path class="st1" d="M201.2,273.4c-0.3,0-0.6-0.1-0.8-0.3c-0.2-0.2-0.3-0.5-0.3-0.8v-14.7c0-0.4,0.1-0.6,0.3-0.8
				c0.2-0.2,0.5-0.3,0.8-0.3h5.7c1.8,0,3.2,0.4,4.2,1.3c1,0.9,1.5,2.1,1.5,3.7c0,1.6-0.5,2.9-1.5,3.8c-1,0.9-2.4,1.3-4.2,1.3h-4.6
				v5.6c0,0.4-0.1,0.6-0.3,0.8C201.8,273.3,201.6,273.4,201.2,273.4z M202.3,264.8h4.3c1.2,0,2.2-0.3,2.8-0.8
				c0.6-0.6,0.9-1.4,0.9-2.5c0-1.1-0.3-1.9-0.9-2.4c-0.6-0.5-1.6-0.8-2.8-0.8h-4.3V264.8z"/>
			<path class="st1" d="M222.4,273.4c-1.6,0-3-0.4-4.1-1.1c-1.2-0.7-2.1-1.7-2.7-3c-0.6-1.3-1-2.8-1-4.6c0-1.3,0.2-2.5,0.5-3.6
				c0.4-1.1,0.9-2,1.6-2.7c0.7-0.8,1.5-1.3,2.4-1.7c1-0.4,2-0.6,3.2-0.6c1.6,0,3,0.3,4.1,1c1.2,0.7,2.1,1.7,2.7,3
				c0.6,1.3,1,2.8,1,4.5c0,1.3-0.2,2.5-0.5,3.6c-0.4,1.1-0.9,2-1.6,2.7c-0.7,0.8-1.5,1.3-2.4,1.7
				C224.7,273.2,223.6,273.4,222.4,273.4z M222.4,271.5c1.1,0,2.1-0.3,2.9-0.8c0.8-0.5,1.4-1.3,1.9-2.3c0.4-1,0.7-2.2,0.7-3.6
				c0-2.1-0.5-3.7-1.4-4.9c-0.9-1.2-2.3-1.7-4-1.7c-1.1,0-2.1,0.3-2.9,0.8c-0.8,0.5-1.4,1.3-1.9,2.3c-0.4,1-0.6,2.2-0.6,3.6
				c0,2.1,0.5,3.7,1.4,4.9C219.4,270.9,220.7,271.5,222.4,271.5z"/>
			<path class="st1" d="M241.3,273.4c-1.7,0-3.1-0.3-4.3-1c-1.2-0.7-2.1-1.7-2.7-3s-1-2.8-1-4.6c0-1.3,0.2-2.5,0.5-3.6
				c0.4-1.1,0.9-2,1.6-2.7c0.7-0.8,1.5-1.3,2.5-1.7c1-0.4,2.1-0.6,3.4-0.6c1,0,1.9,0.1,2.7,0.4c0.9,0.3,1.7,0.7,2.4,1.2
				c0.2,0.2,0.4,0.4,0.5,0.6c0.1,0.2,0.1,0.4,0,0.6c-0.1,0.2-0.2,0.4-0.3,0.5c-0.2,0.1-0.3,0.2-0.5,0.2c-0.2,0-0.4-0.1-0.7-0.2
				c-0.6-0.5-1.2-0.8-1.9-1c-0.6-0.2-1.4-0.3-2.2-0.3c-1.2,0-2.2,0.2-3,0.7c-0.8,0.5-1.5,1.2-1.9,2.1c-0.5,0.9-0.7,2-0.8,3.3
				l-0.7-0.6h8.1c0.3,0,0.6,0.1,0.7,0.2c0.2,0.2,0.3,0.4,0.3,0.6c0,0.3-0.1,0.5-0.3,0.7c-0.2,0.2-0.4,0.2-0.7,0.2h-8.2l0.7-0.5
				c0,1.4,0.3,2.5,0.7,3.5c0.5,0.9,1.1,1.7,1.9,2.2c0.8,0.5,1.8,0.7,3,0.7c0.8,0,1.5-0.1,2.2-0.3c0.7-0.2,1.3-0.5,1.9-1
				c0.3-0.2,0.5-0.3,0.7-0.2c0.2,0,0.4,0.1,0.5,0.2c0.1,0.1,0.2,0.3,0.3,0.5c0,0.2,0,0.4-0.1,0.6c-0.1,0.2-0.2,0.4-0.5,0.6
				c-0.7,0.5-1.5,0.9-2.3,1.2C243.2,273.3,242.2,273.4,241.3,273.4z"/>
			<path class="st1" d="M251.3,273.4c-0.3,0-0.6-0.1-0.8-0.3c-0.2-0.2-0.3-0.5-0.3-0.8v-14.8c0-0.4,0.1-0.6,0.3-0.8
				c0.2-0.2,0.5-0.3,0.8-0.3c0.4,0,0.6,0.1,0.8,0.3c0.2,0.2,0.3,0.5,0.3,0.8v6.4h3.1l-0.6,0.4l4.8-7.4c0.2-0.2,0.3-0.4,0.6-0.5
				c0.2-0.1,0.4-0.1,0.6,0c0.2,0,0.4,0.1,0.5,0.3c0.2,0.2,0.2,0.3,0.2,0.5c0,0.2-0.1,0.4-0.2,0.7l-4.5,6.7l-0.8-0.7
				c1,0.1,1.8,0.5,2.5,1.1c0.7,0.6,1.3,1.4,1.8,2.4l2.2,4.5c0.1,0.3,0.2,0.5,0.1,0.8c-0.1,0.2-0.2,0.4-0.3,0.5
				c-0.2,0.1-0.4,0.2-0.6,0.2c-0.2,0-0.4,0-0.7-0.1s-0.4-0.3-0.5-0.6l-2-4.4c-0.4-0.9-1-1.6-1.5-2c-0.6-0.4-1.3-0.6-2.2-0.6h-2.6
				v6.5c0,0.4-0.1,0.6-0.3,0.8C252,273.3,251.7,273.4,251.3,273.4z"/>
			<path class="st1" d="M271.2,273.4c-0.4,0-0.6-0.1-0.8-0.3c-0.2-0.2-0.3-0.5-0.3-0.8v-13.9h-5.2c-0.3,0-0.5-0.1-0.7-0.2
				c-0.2-0.2-0.3-0.4-0.3-0.7c0-0.3,0.1-0.5,0.3-0.7c0.2-0.2,0.4-0.2,0.7-0.2h12.6c0.3,0,0.6,0.1,0.7,0.2c0.2,0.2,0.2,0.4,0.2,0.7
				c0,0.3-0.1,0.5-0.2,0.7c-0.2,0.2-0.4,0.2-0.7,0.2h-5.2v13.9c0,0.4-0.1,0.6-0.3,0.8C271.8,273.3,271.5,273.4,271.2,273.4z"/>
			<path class="st1" d="M281.8,273.4c-0.3,0-0.6-0.1-0.8-0.3c-0.2-0.2-0.3-0.5-0.3-0.8v-14.8c0-0.4,0.1-0.7,0.3-0.9
				c0.2-0.2,0.5-0.3,0.8-0.3c0.4,0,0.6,0.1,0.8,0.3c0.2,0.2,0.3,0.5,0.3,0.9v6.4h9.7v-6.4c0-0.4,0.1-0.7,0.3-0.9
				c0.2-0.2,0.5-0.3,0.8-0.3c0.3,0,0.6,0.1,0.8,0.3c0.2,0.2,0.3,0.5,0.3,0.9v14.8c0,0.4-0.1,0.6-0.3,0.8c-0.2,0.2-0.5,0.3-0.8,0.3
				c-0.4,0-0.6-0.1-0.8-0.3c-0.2-0.2-0.3-0.5-0.3-0.8v-6.6h-9.7v6.6c0,0.4-0.1,0.6-0.3,0.8C282.4,273.3,282.2,273.4,281.8,273.4z"/>
			<path class="st1" d="M298.9,273.4c-0.3,0-0.5-0.1-0.7-0.2s-0.3-0.3-0.3-0.5c0-0.2,0-0.5,0.1-0.7l6.5-14.7
				c0.1-0.3,0.3-0.6,0.5-0.7c0.2-0.2,0.5-0.2,0.7-0.2s0.5,0.1,0.7,0.2c0.2,0.2,0.4,0.4,0.6,0.7l6.5,14.7c0.1,0.3,0.2,0.5,0.2,0.7
				c0,0.2-0.1,0.4-0.3,0.5c-0.2,0.1-0.4,0.2-0.7,0.2c-0.3,0-0.6-0.1-0.8-0.2c-0.2-0.2-0.4-0.4-0.5-0.7l-1.7-3.9l1,0.6h-10.2l1-0.6
				l-1.7,3.9c-0.1,0.3-0.3,0.6-0.5,0.7C299.4,273.3,299.2,273.4,298.9,273.4z M305.8,258.9l-3.7,8.8l-0.6-0.5h8.6l-0.5,0.5
				L305.8,258.9L305.8,258.9z"/>
			<path class="st1" d="M323.1,273.4c-0.3,0-0.5-0.1-0.7-0.2s-0.3-0.3-0.3-0.5c0-0.2,0-0.5,0.1-0.7l6.5-14.7
				c0.1-0.3,0.3-0.6,0.5-0.7c0.2-0.2,0.5-0.2,0.7-0.2s0.5,0.1,0.7,0.2c0.2,0.2,0.4,0.4,0.6,0.7l6.5,14.7c0.1,0.3,0.2,0.5,0.2,0.7
				c0,0.2-0.1,0.4-0.3,0.5c-0.2,0.1-0.4,0.2-0.7,0.2c-0.3,0-0.6-0.1-0.8-0.2c-0.2-0.2-0.4-0.4-0.5-0.7l-1.7-3.9l1,0.6h-10.2l1-0.6
				l-1.7,3.9c-0.1,0.3-0.3,0.6-0.5,0.7C323.6,273.3,323.4,273.4,323.1,273.4z M330,258.9l-3.7,8.8l-0.6-0.5h8.6l-0.5,0.5L330,258.9
				L330,258.9z"/>
			<path class="st1" d="M342.2,273.4c-0.3,0-0.6-0.1-0.8-0.3c-0.2-0.2-0.3-0.5-0.3-0.8v-14.7c0-0.4,0.1-0.6,0.3-0.8
				c0.2-0.2,0.5-0.3,0.8-0.3h8.7c0.3,0,0.6,0.1,0.7,0.2c0.2,0.2,0.2,0.4,0.2,0.7c0,0.3-0.1,0.5-0.2,0.7c-0.2,0.2-0.4,0.2-0.7,0.2
				h-7.6v13.9c0,0.4-0.1,0.6-0.3,0.8C342.8,273.3,342.5,273.4,342.2,273.4z"/>
			<path class="st1" d="M355.5,273.2c-0.4,0-0.7-0.1-0.9-0.3c-0.2-0.2-0.3-0.5-0.3-0.9v-14.4c0-0.4,0.1-0.7,0.3-0.9
				c0.2-0.2,0.5-0.3,0.9-0.3h8.8c0.3,0,0.5,0.1,0.7,0.2c0.2,0.2,0.2,0.4,0.2,0.7c0,0.3-0.1,0.5-0.2,0.7c-0.2,0.2-0.4,0.2-0.7,0.2
				h-7.8v5.5h7.3c0.3,0,0.5,0.1,0.7,0.2c0.2,0.2,0.2,0.4,0.2,0.7c0,0.3-0.1,0.5-0.2,0.7c-0.2,0.2-0.4,0.2-0.7,0.2h-7.3v5.8h7.8
				c0.3,0,0.5,0.1,0.7,0.2c0.2,0.2,0.2,0.4,0.2,0.7c0,0.3-0.1,0.5-0.2,0.7c-0.2,0.2-0.4,0.2-0.7,0.2H355.5z"/>
			<path class="st1" d="M369.7,273.4c-0.3,0-0.6-0.1-0.8-0.3c-0.2-0.2-0.3-0.5-0.3-0.8v-14.8c0-0.4,0.1-0.7,0.3-0.9
				c0.2-0.2,0.5-0.3,0.8-0.3c0.4,0,0.6,0.1,0.8,0.3c0.2,0.2,0.3,0.5,0.3,0.9v6.4h9.7v-6.4c0-0.4,0.1-0.7,0.3-0.9
				c0.2-0.2,0.5-0.3,0.8-0.3c0.3,0,0.6,0.1,0.8,0.3c0.2,0.2,0.3,0.5,0.3,0.9v14.8c0,0.4-0.1,0.6-0.3,0.8c-0.2,0.2-0.5,0.3-0.8,0.3
				c-0.4,0-0.6-0.1-0.8-0.3c-0.2-0.2-0.3-0.5-0.3-0.8v-6.6h-9.7v6.6c0,0.4-0.1,0.6-0.3,0.8C370.3,273.3,370,273.4,369.7,273.4z"/>
			<path class="st1" d="M402.4,277.2c-0.3,0-0.6-0.1-0.7-0.3c-0.2-0.2-0.3-0.4-0.3-0.7v-3h-13.2c-0.4,0-0.7-0.1-0.9-0.3
				c-0.2-0.2-0.3-0.5-0.3-0.9v-14.6c0-0.4,0.1-0.7,0.3-0.9c0.2-0.2,0.5-0.3,0.8-0.3c0.4,0,0.6,0.1,0.8,0.3c0.2,0.2,0.3,0.5,0.3,0.9
				v13.9h9.6v-13.9c0-0.4,0.1-0.7,0.3-0.9c0.2-0.2,0.5-0.3,0.8-0.3c0.4,0,0.6,0.1,0.8,0.3c0.2,0.2,0.3,0.5,0.3,0.9v14.9l-1-1h2.3
				c0.3,0,0.6,0.1,0.8,0.3c0.2,0.2,0.3,0.5,0.3,0.8v3.8C403.4,276.9,403.1,277.2,402.4,277.2z"/>
			<path class="st1" d="M407.3,273.4c-0.3,0-0.6-0.1-0.8-0.3c-0.2-0.2-0.3-0.5-0.3-0.8v-14.8c0-0.4,0.1-0.7,0.3-0.9
				c0.2-0.2,0.5-0.3,0.8-0.3c0.4,0,0.6,0.1,0.8,0.3c0.2,0.2,0.3,0.5,0.3,0.9v14.8c0,0.4-0.1,0.6-0.3,0.8
				C408,273.3,407.7,273.4,407.3,273.4z"/>
			<path class="st1" d="M423.6,273.4c-0.3,0-0.6-0.1-0.8-0.3c-0.2-0.2-0.3-0.5-0.3-0.8v-6h-2.6c-0.5,0-0.9,0-1.2,0.1
				c-0.4,0.1-0.7,0.2-1,0.5c-0.3,0.2-0.5,0.6-0.8,1l-2.6,4.8c-0.2,0.3-0.3,0.5-0.6,0.6c-0.2,0.1-0.4,0.1-0.7,0.1
				c-0.2,0-0.4-0.1-0.6-0.3c-0.2-0.2-0.3-0.3-0.3-0.6c0-0.2,0-0.5,0.2-0.8l2.1-3.9c0.4-0.7,0.8-1.2,1.2-1.5c0.5-0.3,1-0.5,1.7-0.5
				h0.6l-0.1,0.3c-1.8,0-3.2-0.4-4.1-1.3c-1-0.8-1.5-2-1.5-3.6c0-1,0.2-1.9,0.6-2.7c0.4-0.7,1.1-1.3,1.9-1.7
				c0.8-0.4,1.9-0.6,3.1-0.6h5.6c0.4,0,0.7,0.1,0.9,0.3c0.2,0.2,0.3,0.5,0.3,0.9v14.6c0,0.4-0.1,0.6-0.3,0.8
				C424.3,273.3,424,273.4,423.6,273.4z M418.3,264.5h4.2v-6.3h-4.2c-1.3,0-2.2,0.3-2.8,0.8c-0.6,0.5-1,1.3-1,2.3c0,1,0.3,1.8,1,2.3
				C416.1,264.2,417.1,264.5,418.3,264.5z"/>
		</g>
		<g id="ukr_1_7_">
			<g>
				<path class="st2" d="M153,273.8l-3.4-2.3c4.3-6.4,6.6-13.8,6.6-21.5c0-5.2-1-10.2-3-14.9l3.8-1.6c2.2,5.2,3.3,10.8,3.3,16.6
					C160.3,258.5,157.8,266.7,153,273.8z"/>
				<path class="st2" d="M106.5,290.9c-18.4-5-31.3-21.9-31.3-41c0-16.2,9.4-31.3,24.1-38.3l1.8,3.7c-13.2,6.4-21.7,19.9-21.7,34.6
					c0,17.2,11.6,32.5,28.2,37L106.5,290.9z"/>
				<path class="st3" d="M117.9,290.9C95.4,290.9,77,272.6,77,250s18.4-40.9,40.9-40.9c14.9,0,28.7,8.1,35.9,21.3l-0.9,0.5
					c-7-12.8-20.4-20.7-35-20.7C95.9,210.1,78,228,78,250s17.9,39.9,39.9,39.9c2.4,0,4.9-0.2,7.3-0.7l0.2,1
					C122.9,290.7,120.4,290.9,117.9,290.9z"/>
				<path class="st3" d="M117.8,286.4c-4.8,0-9.4-0.9-13.8-2.7l0.8-1.9c4.1,1.7,8.5,2.5,13.1,2.5c19.1,0,34.6-15.5,34.6-34.6
					s-15.5-34.6-34.6-34.6c-10.9,0-21,5-27.6,13.8l-1.7-1.3c7-9.3,17.7-14.6,29.3-14.6c20.2,0,36.7,16.4,36.7,36.7
					S138,286.4,117.8,286.4z"/>
				<path class="st2" d="M117.8,281.4c-17.4,0-31.5-14.1-31.5-31.5s14.1-31.5,31.5-31.5c10.9,0,20.9,5.5,26.7,14.7l-3.5,2.2
					c-5-8-13.7-12.8-23.1-12.8c-15.1,0-27.3,12.3-27.3,27.3s12.3,27.3,27.3,27.3c12.7,0,23.6-8.6,26.6-20.9l4,1
					C144.9,271.5,132.3,281.4,117.8,281.4z"/>
			</g>
		</g>
	</g>
</g>
</svg>
